<svg viewBox="0 0 24 24" xmlns="http://www.w3.org/2000/svg"><g fill="#303C42"><path d="M21.985 23.379l-1-4A.5.5 0 0020.5 19H20v-6.092c.58-.207 1-.757 1-1.408v-3c0-.827-.673-1.5-1.5-1.5H18V6c0-3.309-2.691-6-6-6S6 2.691 6 6v1H4.5C3.673 7 3 7.673 3 8.5v3c0 .651.42 1.2 1 1.408V19h-.5a.5.5 0 00-.485.379l-1 4A.498.498 0 002.5 24h4a.5.5 0 00.5-.5v-6.252c.173.062.376.127.61.194l.583 1.719a.502.502 0 00.258.29c.025.012.348.159.98.298l-.425 2.672A.501.501 0 009.5 23h5a.5.5 0 00.494-.579l-.425-2.672c.632-.139.955-.286.98-.298a.5.5 0 00.258-.29l.582-1.718c.235-.068.438-.133.611-.195V23.5a.5.5 0 00.5.5h4a.5.5 0 00.485-.621zM9 14.5a.5.5 0 01.5-.5h5a.5.5 0 110 1h-5a.5.5 0 01-.5-.5zm5.5-2.5h-5a.5.5 0 110-1h5a.5.5 0 110 1zm.078-3.178c-.01.001-.017.007-.027.008l-.03.002C13.8 8.932 12.962 9 12 9c-.971 0-1.813-.07-2.538-.171l-.013.001c-.01 0-.017-.007-.027-.008C8.316 8.663 7.521 8.433 7 8.247V7.175c.345.141 1.03.383 2.058.57l.444-4.296A.5.5 0 0110 3h4a.5.5 0 01.498.449l.444 4.296c1.028-.187 1.713-.429 2.058-.57v1.072c-.52.186-1.316.416-2.422.575zM15 6.5a.5.5 0 111 0 .5.5 0 01-1 0zm-.065 12.117c-.377.127-1.337.383-2.935.383-1.6 0-2.56-.256-2.935-.383l-.307-.907c.86.163 1.932.29 3.242.29s2.381-.127 3.242-.29l-.307.907z"/><path d="M10.451 4l-.402 3.888a17.18 17.18 0 003.902 0L13.55 4h-3.1zM12 7c-.551 0-1-.449-1-1s.449-1 1-1 1 .449 1 1-.449 1-1 1z"/></g></svg>