<svg width="71" height="72" fill="none" xmlns="http://www.w3.org/2000/svg"><path fill="#5B4D51" d="M.788 22.7h52.995v48.893H.788z"/><path fill="#896B73" d="M15.316 9.743h53.077v48.968H15.316z"/><path fill="#C2B1B3" d="M15.316 22.7h38.496v36.012H15.316z"/><path d="M42.96 49.884a.78.78 0 01-.103.376 1.691 1.691 0 01-.256.325 1.83 1.83 0 01-.342.239.867.867 0 01-.359.085c-.08 0-.16-.005-.24-.017a1.69 1.69 0 00-.238-.017c-.103 0-.171.034-.206.102a2.87 2.87 0 00-.102.189.48.48 0 01-.12.188c-.057.068-.16.102-.307.102a1.32 1.32 0 01-.29-.034 1.413 1.413 0 00-.308-.034c-.217 0-.428.04-.633.12a1.466 1.466 0 01-.632.136 5.55 5.55 0 01-.872-.102 6.595 6.595 0 01-1.179-.291 4.723 4.723 0 01-1.025-.461c-.296-.194-.445-.416-.445-.667 0-.194.109-.387.325-.581.228-.205.479-.427.752-.666.273-.251.518-.53.735-.838a1.76 1.76 0 00.342-1.077c0-.239-.052-.472-.154-.7a2.67 2.67 0 00-.359-.633 3.422 3.422 0 00-.513-.563c-.182-.171-.359-.33-.53-.48a.73.73 0 00-.256-.033 4.24 4.24 0 00-.923.102 5.055 5.055 0 01-.922.086 1.92 1.92 0 01-.496-.069c-.16-.045-.268-.16-.325-.341-.296.148-.592.29-.889.427-.296.125-.598.24-.905.342-.194.068-.336.12-.427.153a.592.592 0 00-.188.12.582.582 0 00-.086.205 1.752 1.752 0 01-.12.393.84.84 0 00-.068.308v.308a.669.669 0 01-.085.358c-.057.08-.12.16-.188.24a3.768 3.768 0 00-.171.222.517.517 0 00-.086.307c0 .103.017.194.052.274l-.018.085c0 .171.046.308.137.41.091.092.2.166.325.223.137.045.279.09.427.136.148.046.28.103.393.171.114.069.222.182.325.342.114.148.21.313.29.496.091.17.166.347.223.53.056.17.085.318.085.444v.085h-.222c-.456 0-.912.023-1.367.069a49.59 49.59 0 00-1.333.12c-.445.056-.895.102-1.35.136a13.218 13.218 0 01-2.051.051 5.897 5.897 0 01-.889-.102 2.648 2.648 0 01-.786-.24c-.216-.125-.325-.302-.325-.53 0-.239.052-.438.154-.598.114-.16.256-.29.427-.393a2.6 2.6 0 01.598-.273c.228-.08.45-.154.667-.222.228-.069.439-.137.632-.205.205-.069.376-.16.513-.274.137-.114.25-.296.342-.547.09-.262.165-.54.222-.837.057-.296.108-.587.154-.872.045-.296.085-.53.12-.7.01-.057.017-.126.017-.205a2.2 2.2 0 00.017-.274 2.14 2.14 0 00.017-.256.435.435 0 01.05-.171c.115-.194.2-.308.257-.342a.574.574 0 00.137-.085c.034-.023.051-.08.051-.171a6.93 6.93 0 00.017-.615c0-.137.029-.24.086-.308.057-.08.114-.148.17-.205l.189-.154a.3.3 0 00.085-.222.708.708 0 00-.137-.427.786.786 0 01-.136-.445.42.42 0 01.068-.239c.046-.068.097-.131.154-.188.068-.057.125-.114.17-.17a.422.422 0 00.07-.24.903.903 0 00-.086-.376 1.093 1.093 0 01-.069-.376c0-.091.029-.154.086-.188a.862.862 0 01.205-.103c.08-.022.148-.04.205-.05.068-.024.102-.052.102-.086-.034-.069-.096-.103-.188-.103-.136 0-.205.074-.205.222a1.087 1.087 0 01-.205-.188.434.434 0 01-.085-.256c0-.114.028-.217.085-.308l.188-.341c.08-.126.148-.268.205-.428.057-.16.086-.353.086-.58 0-.24-.034-.468-.103-.684a2.367 2.367 0 01-.102-.684c0-.114.023-.228.068-.342.057-.114.12-.222.188-.324.08-.114.154-.223.222-.325.08-.114.137-.234.171-.359.069-.217.103-.444.103-.684.011-.239.017-.478.017-.717.011-.24.028-.473.051-.701a1.92 1.92 0 01.222-.667 7.928 7.928 0 00.393-.769c.046-.114.086-.233.12-.358.034-.137.068-.314.103-.53.056-.33.142-.65.256-.957.125-.308.21-.627.256-.957a7.11 7.11 0 00.034-.633c.012-.182.04-.341.086-.478a.918.918 0 01.273-.36 2.55 2.55 0 01.615-.307 4.27 4.27 0 01.89-.205 5.89 5.89 0 01.888-.068c.342 0 .695.017 1.06.051.034.194.108.37.222.53.114.148.233.296.358.444.137.148.262.302.376.462.126.148.211.319.257.512.057.262.09.513.102.752.023.228.12.456.29.684a.81.81 0 01.12.444c0 .262-.034.513-.102.752-.068.24-.103.485-.103.735 0 .148.046.393.137.735.091.342.2.712.325 1.11.125.388.245.77.359 1.146.114.364.2.65.256.854.103.433.154.878.154 1.333.011.456.085.9.222 1.333.137.456.256.912.359 1.367.102.445.17.906.205 1.385.023.444.08.877.17 1.299.092.41.189.826.291 1.247.103.41.194.826.274 1.248.091.421.137.86.137 1.316 0 .17-.018.347-.052.53a.848.848 0 01-.222.478c.24.285.507.592.803.923.308.33.61.592.906.786.114.068.29.12.53.154.24.034.478.08.718.136.25.046.467.12.65.223.193.09.29.228.29.41zm-7.161-9.212c0-.102-.04-.233-.12-.393-.08-.17-.17-.359-.273-.564a7.404 7.404 0 01-.256-.666 2.36 2.36 0 01-.12-.752c0-.308-.046-.61-.137-.906a5.312 5.312 0 01-.188-.923c-.023-.25-.051-.524-.085-.82a3.345 3.345 0 00-.171-.855 1.5 1.5 0 00-.427-.666c-.183-.182-.45-.274-.804-.274a.367.367 0 01-.12.206 1.706 1.706 0 01-.204.102 5.366 5.366 0 01-.222.069.36.36 0 00-.188.12.518.518 0 01.017.153c0 .205-.046.399-.137.581-.08.17-.154.347-.222.53a2.73 2.73 0 00-.171.615c-.023.205-.034.41-.034.615 0 .182.005.36.017.53.011.17.017.342.017.513 0 .262-.023.49-.069.683a5.496 5.496 0 01-.153.513c-.057.16-.109.313-.154.461a1.397 1.397 0 00-.069.445c0 .342.012.638.035.888.023.251.074.462.154.633.08.16.193.285.341.376.148.08.354.12.616.12.182 0 .444-.023.786-.069.353-.046.7-.12 1.042-.222a3.56 3.56 0 00.906-.427c.262-.171.393-.376.393-.616z" fill="#5B4D51"/><path d="M28.868 15.152h1.416c.286 0 .508-.059.664-.176a.558.558 0 00.244-.459c0-.085.036-.127.108-.127.078 0 .117.042.117.127v1.68c0 .084-.04.127-.117.127-.072 0-.108-.043-.108-.127 0-.17-.081-.32-.244-.45-.156-.136-.378-.205-.664-.205h-1.416v3.38h-.635v-5.86c0-.195-.032-.345-.098-.45a.383.383 0 00-.253-.195 1.128 1.128 0 01-.215-.078.13.13 0 01-.049-.107c0-.078.078-.117.234-.117h3.887l.049 1.103c0 .072-.04.11-.117.117-.078 0-.124-.042-.137-.127a.952.952 0 00-.225-.498c-.11-.13-.325-.195-.644-.195h-1.328c-.313 0-.469.127-.469.38v2.257zm4.17 0c0-.195-.026-.345-.078-.45a.35.35 0 00-.244-.204 1.125 1.125 0 01-.215-.079.12.12 0 01-.049-.097c0-.085.075-.127.225-.127h.673c.19 0 .284.1.284.303v.712c.084-.273.234-.514.449-.722.26-.248.599-.371 1.015-.371h.323v.615a1.535 1.535 0 00-1.211.234c-.313.215-.505.557-.576 1.026v2.93h-.596v-3.77zm2.89 1.377c0-.736.186-1.328.557-1.778.371-.455.882-.683 1.533-.683.651 0 1.163.228 1.534.683.37.45.556 1.042.556 1.778 0 .735-.185 1.331-.556 1.787-.371.45-.883.674-1.534.674-.65 0-1.162-.225-1.533-.674-.37-.456-.556-1.052-.556-1.787zm.684 0c0 .677.13 1.191.39 1.543.268.345.606.517 1.016.517.404 0 .74-.172 1.006-.517.267-.352.4-.866.4-1.543 0-.677-.133-1.188-.4-1.533-.267-.352-.602-.528-1.006-.528-.41 0-.748.176-1.015.528-.26.345-.39.856-.39 1.533zm5.293 2.392h-.586v-3.77c0-.194-.03-.344-.088-.448a.384.384 0 00-.263-.215 1.243 1.243 0 01-.196-.069.101.101 0 01-.058-.097c0-.085.078-.127.234-.127h.693c.176 0 .264.1.264.303v.937a1.82 1.82 0 01.576-.918c.306-.267.664-.4 1.075-.4.364 0 .667.136.908.41.247.273.37.758.37 1.455v2.94h-.605v-3.018c0-.436-.078-.755-.234-.957a.725.725 0 00-.615-.303c-.39 0-.736.212-1.036.635-.253.345-.4.866-.439 1.562v2.08zm5.166-6.2v1.474h1.309v.39h-1.3v3.262c0 .254.063.443.186.566.124.118.313.176.567.176.13 0 .25-.003.361-.01a1.4 1.4 0 00.274-.038v.4a1.782 1.782 0 01-.391.059 7.06 7.06 0 01-.41.019c-.28 0-.502-.026-.664-.078a.703.703 0 01-.352-.264.848.848 0 01-.156-.43 6.045 6.045 0 01-.03-.634v-3.028h-.703v-.39h.704v-.889l.605-.586zm2.735 3.857c.019.566.175 1.032.468 1.396.293.358.694.56 1.201.605a2.223 2.223 0 001.202-.214c.065-.033.12-.04.166-.02.045.02.071.049.078.088a.199.199 0 01-.02.146.336.336 0 01-.117.118c-.17.097-.38.175-.635.234a3.135 3.135 0 01-.84.049c-.592-.04-1.103-.283-1.533-.733-.43-.449-.644-1.08-.644-1.894 0-.723.192-1.283.576-1.68.384-.403.882-.605 1.494-.605.508 0 .934.182 1.28.547.344.364.517.901.517 1.611v.352h-3.194zm0-.42h2.578c0-.612-.118-1.045-.352-1.3a1.073 1.073 0 00-.84-.39c-.377 0-.7.15-.967.45-.267.292-.407.706-.42 1.24zm5 2.763h-.587v-3.77c0-.194-.029-.344-.087-.448a.384.384 0 00-.264-.215 1.243 1.243 0 01-.195-.069.101.101 0 01-.059-.097c0-.085.078-.127.234-.127h.694c.176 0 .264.1.264.303v.937c.09-.352.283-.658.576-.918.306-.267.664-.4 1.074-.4.364 0 .667.136.908.41.248.273.371.758.371 1.455v2.94h-.605v-3.018c0-.436-.078-.755-.235-.957a.725.725 0 00-.615-.303c-.39 0-.736.212-1.035.635-.254.345-.4.866-.44 1.562v2.08zm4.667-2.343c0 .625.12 1.116.362 1.474.247.352.56.527.937.527.365 0 .664-.175.899-.527.234-.351.351-.81.351-1.377v-.654c0-.456-.127-.82-.38-1.094a1.198 1.198 0 00-.909-.41c-.364 0-.667.18-.908.537-.234.352-.352.86-.352 1.524zm2.559 1.601c-.3.54-.736.81-1.309.81-.592 0-1.054-.227-1.386-.683-.326-.456-.489-1.042-.489-1.758 0-.768.163-1.373.489-1.816a1.543 1.543 0 011.308-.664c.593 0 1.052.218 1.377.654l.01.01v-1.885c0-.195-.03-.345-.088-.45a.35.35 0 00-.234-.194 1.43 1.43 0 01-.225-.088c-.032-.02-.049-.052-.049-.098 0-.078.078-.117.235-.117h.683c.183 0 .274.104.274.312v6.71h-.596v-.743zM6.547 63.753c0-.195-.033-.345-.098-.45a.382.382 0 00-.254-.195 1.126 1.126 0 01-.214-.078.13.13 0 01-.05-.107c0-.078.079-.117.235-.117h1.27c.234 0 .504.01.81.029.313.02.576.049.791.088.573.104 1.048.42 1.426.947.378.52.566 1.312.566 2.373 0 .736-.094 1.319-.283 1.748-.182.423-.426.755-.732.996a2.468 2.468 0 01-.977.489 5.236 5.236 0 01-1.28.136h-1.21v-5.86zm1.455 5.45c.684 0 1.247-.232 1.69-.694.449-.463.673-1.218.673-2.266 0-.976-.179-1.725-.537-2.246-.351-.52-.914-.781-1.69-.781H7.66c-.319 0-.478.13-.478.39v5.205c0 .26.16.391.478.391h.342zm4.522-1.934c.02.566.175 1.031.468 1.396.293.358.694.56 1.201.605a2.227 2.227 0 001.202-.214c.065-.033.12-.04.166-.02.045.02.071.049.078.088a.2.2 0 01-.02.147.336.336 0 01-.117.117c-.17.097-.38.175-.635.234a3.14 3.14 0 01-.84.049c-.592-.04-1.103-.283-1.533-.733-.43-.449-.644-1.08-.644-1.894 0-.723.192-1.283.576-1.68.384-.403.882-.605 1.494-.605.508 0 .934.182 1.28.547.344.364.517.901.517 1.61v.353h-3.193zm0-.42h2.578c0-.612-.117-1.045-.352-1.3a1.073 1.073 0 00-.84-.39c-.377 0-.7.15-.966.45-.267.292-.407.706-.42 1.24zm6.123 1.816l1.347-3.78h.303c.104 0 .166.023.186.07.026.045.022.1-.01.165l-1.68 4.522h-.371l-1.64-4.082c-.06-.105-.111-.196-.157-.274a.326.326 0 00-.205-.166 1.372 1.372 0 01-.176-.049.096.096 0 01-.049-.088c0-.065.079-.097.235-.097h.732l1.485 3.779zm3.144-1.397c.02.567.176 1.032.469 1.397.293.358.693.56 1.201.605a2.227 2.227 0 001.201-.214c.065-.033.12-.04.166-.02.046.02.072.049.078.088a.2.2 0 01-.02.147.336.336 0 01-.116.117 2.36 2.36 0 01-.635.234 3.14 3.14 0 01-.84.049 2.269 2.269 0 01-1.533-.733c-.43-.449-.645-1.08-.645-1.894 0-.723.192-1.283.576-1.68.385-.403.883-.605 1.495-.605.507 0 .934.182 1.279.547.345.364.518.901.518 1.61v.353H21.79zm0-.42h2.578c0-.611-.117-1.044-.351-1.298a1.073 1.073 0 00-.84-.39c-.378 0-.7.149-.967.448-.267.293-.407.707-.42 1.24zm5.108 2.764h-.625v-6.074c0-.195-.027-.345-.079-.45a.352.352 0 00-.244-.194 1.463 1.463 0 01-.215-.088.12.12 0 01-.048-.098c0-.078.075-.117.224-.117h.713c.182 0 .274.104.274.312v6.71zm1.162-2.392c0-.736.185-1.328.556-1.778.371-.455.883-.683 1.534-.683.65 0 1.162.228 1.533.683.37.45.556 1.042.556 1.778 0 .735-.185 1.331-.556 1.787-.371.449-.882.674-1.534.674-.65 0-1.162-.225-1.533-.674-.37-.456-.556-1.052-.556-1.787zm.683 0c0 .677.13 1.191.39 1.543.268.345.606.517 1.017.517.403 0 .739-.172 1.005-.517.267-.352.4-.866.4-1.543 0-.677-.133-1.189-.4-1.534-.266-.351-.602-.527-1.005-.527-.41 0-.75.176-1.016.527-.26.345-.39.857-.39 1.534zm4.697-1.377c0-.196-.026-.345-.078-.45a.384.384 0 00-.263-.214.897.897 0 01-.205-.069c-.033-.02-.05-.052-.05-.097 0-.085.079-.127.235-.127h.694c.175 0 .263.104.263.312v.332l.04-.058c.331-.476.78-.713 1.347-.713.553 0 .99.221 1.309.664.325.442.488 1.048.488 1.816 0 .716-.17 1.302-.508 1.758-.339.456-.797.684-1.377.684-.586 0-1.019-.218-1.299-.655v2.266h-.596v-5.45zm3.155 1.425c0-.618-.114-1.116-.342-1.494a1.104 1.104 0 00-1.006-.566c-.306 0-.582.143-.83.43-.247.28-.371.638-.371 1.074v.967c0 .56.124.966.371 1.22.254.254.54.381.86.381.37 0 .683-.179.937-.537.254-.358.38-.85.38-1.474zm2.158 0c.02.567.176 1.032.469 1.397.293.358.693.56 1.201.605a2.227 2.227 0 001.201-.214c.065-.033.12-.04.166-.02.046.02.072.049.078.088a.199.199 0 01-.02.147.336.336 0 01-.116.117 2.36 2.36 0 01-.635.234 3.14 3.14 0 01-.84.049c-.593-.04-1.104-.283-1.533-.733-.43-.449-.645-1.08-.645-1.894 0-.723.192-1.283.576-1.68.385-.403.883-.605 1.495-.605.507 0 .934.182 1.279.547.345.364.517.901.517 1.61v.353h-3.193zm0-.42h2.578c0-.611-.117-1.044-.351-1.298a1.073 1.073 0 00-.84-.39c-.378 0-.7.149-.967.448-.267.293-.407.707-.42 1.24zm4.512-1.005c0-.196-.026-.345-.078-.45a.35.35 0 00-.245-.205 1.125 1.125 0 01-.214-.078.12.12 0 01-.05-.097c0-.085.076-.127.225-.127h.674c.19 0 .283.1.283.302v.713a1.69 1.69 0 01.45-.722c.26-.248.599-.371 1.015-.371h.323v.615a1.536 1.536 0 00-1.211.234c-.313.215-.505.557-.577 1.026v2.93h-.595v-3.77z" fill="#C2B1B3"/></svg>