<svg id="Layer_1" version="1.1" viewBox="0 0 50 50" xml:space="preserve" xmlns="http://www.w3.org/2000/svg"><style>.st4{fill:#505050}</style><path d="M42.29 14.14v8.15L48 18.65l-5.71-4.51m-34.57 0L2 18.65l5.72 3.65v-8.16" fill="#e5dbdc"/><path fill="#fff" d="M42.29 22.29V2H7.72v20.3L25 33.32z"/><path d="M48 18.65L30.19 30.01 48 47.99zm-46 0v29.34l17.81-17.98z" fill="#e5dbdc"/><path fill="#896b73" d="M30.19 30.01L25 33.32l-5.19-3.31L2 47.99V48h46v-.01z"/><path class="st4" d="M48.75 18.65c0-.01-.01-.02-.01-.02v-.02c0-.05-.02-.1-.03-.15a.495.495 0 00-.04-.13c-.01-.01-.01-.03-.02-.04a.265.265 0 00-.05-.06l-.01-.01c-.03-.04-.06-.08-.1-.12l-.03-.03-5.42-4.28V2c0-.2-.08-.4-.22-.53a.75.75 0 00-.53-.22H13.58a.749.749 0 100 1.5h27.96v19.12L25 32.43 8.47 21.88V2.75h1.11a.749.749 0 100-1.5H7.72c-.2 0-.39.08-.53.22-.14.13-.22.33-.22.53v11.77l-5.43 4.28-.03.03c-.04.03-.07.08-.1.12-.01.01-.02.02-.02.03-.01.01-.02.02-.03.04-.01.02-.01.03-.02.05-.02.04-.03.09-.04.13-.01.05-.03.1-.03.15 0 .02-.01.03-.01.04V48c0 .41.34.75.75.75h46c.31 0 .58-.19.69-.46.04-.09.06-.19.06-.29V18.65zM18.62 30.14L2.75 46.17V20.01l15.87 10.13zm28.63-10.13v26.15L31.38 30.14l15.87-10.13zm-4.21-4.32l3.67 2.89-3.67 2.34v-5.23zM25.4 33.95l4.68-2.99L46.2 47.24H3.8l16.12-16.28 4.68 2.99c.24.16.56.16.8 0zM6.97 20.92L3.3 18.58l3.67-2.9v5.24z"/><circle class="st4" cx="11.58" cy="2" r=".75"/><path class="st4" d="M37.92 5.77H12.08c-.41 0-.75.34-.75.75s.34.75.75.75h25.84a.749.749 0 100-1.5zm0 4.24H12.08c-.41 0-.75.34-.75.75s.34.75.75.75h25.84a.749.749 0 100-1.5zm.75 5c0-.41-.34-.75-.75-.75H12.08c-.41 0-.75.34-.75.75s.34.75.75.75h25.84c.42 0 .75-.34.75-.75zm-26.59 3.5c-.41 0-.75.34-.75.75s.34.75.75.75h11.03c.41 0 .75-.34.75-.75s-.34-.75-.75-.75H12.08z"/></svg>