<svg width="71" height="72" viewBox="0 0 71 72" fill="none" xmlns="http://www.w3.org/2000/svg">
<rect x="0.788239" y="22.6996" width="52.9953" height="48.8934" fill="#5B4D51"/>
<rect x="15.3162" y="9.74327" width="53.0767" height="48.9685" fill="#896B73"/>
<rect x="15.3162" y="22.6996" width="38.4965" height="36.0123" fill="#C2B1B3"/>
<path d="M42.9596 49.8838C42.9596 50.0091 42.9254 50.1344 42.8571 50.2598C42.7887 50.3737 42.7033 50.4819 42.6007 50.5845C42.4982 50.6756 42.3843 50.7554 42.2589 50.8237C42.1336 50.8807 42.014 50.9092 41.9 50.9092C41.8203 50.9092 41.7405 50.9035 41.6608 50.8921C41.581 50.8807 41.5013 50.875 41.4215 50.875C41.319 50.875 41.2506 50.9092 41.2164 50.9775C41.1823 51.0345 41.1481 51.0972 41.1139 51.1655C41.0911 51.2339 41.0512 51.2966 40.9943 51.3535C40.9373 51.4219 40.8348 51.4561 40.6867 51.4561C40.5955 51.4561 40.4987 51.4447 40.3961 51.4219C40.2936 51.3991 40.1911 51.3877 40.0885 51.3877C39.872 51.3877 39.6613 51.4276 39.4562 51.5073C39.2625 51.5985 39.0517 51.6441 38.8239 51.6441C38.6302 51.6441 38.3397 51.6099 37.9523 51.5415C37.5649 51.4845 37.1718 51.3877 36.7731 51.251C36.3857 51.1257 36.0439 50.9719 35.7477 50.7896C35.4515 50.5959 35.3034 50.3737 35.3034 50.1231C35.3034 49.9294 35.4116 49.7357 35.6281 49.542C35.8559 49.3369 36.1066 49.1148 36.38 48.8755C36.6535 48.6248 36.8984 48.3457 37.1149 48.0381C37.3427 47.7305 37.4567 47.3716 37.4567 46.9614C37.4567 46.7222 37.4054 46.4886 37.3029 46.2607C37.2117 46.0329 37.0921 45.8221 36.944 45.6284C36.7959 45.4233 36.625 45.2354 36.4313 45.0645C36.249 44.8936 36.0724 44.7341 35.9015 44.5859C35.8445 44.5632 35.7591 44.5518 35.6452 44.5518C35.3375 44.5518 35.0299 44.5859 34.7223 44.6543C34.4147 44.7113 34.1071 44.7398 33.7995 44.7398C33.6399 44.7398 33.4747 44.717 33.3038 44.6714C33.1443 44.6258 33.0361 44.5119 32.9791 44.3296C32.6829 44.4777 32.3867 44.6201 32.0905 44.7568C31.7942 44.8822 31.4923 44.9961 31.1847 45.0986C30.991 45.167 30.8486 45.2183 30.7575 45.2524C30.6777 45.2866 30.615 45.3265 30.5695 45.3721C30.5353 45.4177 30.5068 45.486 30.484 45.5772C30.4726 45.6683 30.4328 45.7993 30.3644 45.9702C30.3188 46.0842 30.296 46.1867 30.296 46.2778C30.296 46.369 30.296 46.4715 30.296 46.5855C30.296 46.7336 30.2676 46.8532 30.2106 46.9443C30.1536 47.0241 30.091 47.1038 30.0226 47.1836C29.9656 47.252 29.9087 47.326 29.8517 47.4058C29.7947 47.4855 29.7663 47.5881 29.7663 47.7134C29.7663 47.8159 29.7833 47.9071 29.8175 47.9868L29.8004 48.0723C29.8004 48.2432 29.846 48.3799 29.9371 48.4824C30.0283 48.5736 30.1365 48.6476 30.2619 48.7046C30.3986 48.7502 30.541 48.7957 30.6891 48.8413C30.8372 48.8869 30.9682 48.9439 31.0822 49.0122C31.1961 49.0806 31.3043 49.1945 31.4069 49.354C31.5208 49.5021 31.6177 49.6673 31.6974 49.8496C31.7885 50.0205 31.8626 50.1971 31.9196 50.3794C31.9765 50.5503 32.005 50.6984 32.005 50.8237V50.9092H31.7829C31.3271 50.9092 30.8714 50.932 30.4157 50.9775C29.9713 51.0117 29.527 51.0516 29.0827 51.0972C28.6383 51.1541 28.1883 51.1997 27.7326 51.2339C27.2882 51.2795 26.8382 51.3023 26.3825 51.3023C26.223 51.3023 25.9894 51.2966 25.6818 51.2852C25.3856 51.2738 25.0893 51.2396 24.7931 51.1826C24.4969 51.1371 24.2348 51.0573 24.007 50.9434C23.7905 50.818 23.6823 50.6414 23.6823 50.4136C23.6823 50.1743 23.7335 49.9749 23.8361 49.8154C23.95 49.6559 24.0924 49.5249 24.2633 49.4224C24.4456 49.3084 24.645 49.2173 24.8615 49.1489C25.0893 49.0692 25.3115 48.9951 25.528 48.9268C25.7558 48.8584 25.9666 48.79 26.1603 48.7217C26.3654 48.6533 26.5363 48.5622 26.673 48.4482C26.8097 48.3343 26.9236 48.152 27.0148 47.9014C27.1059 47.6393 27.18 47.3602 27.237 47.064C27.2939 46.7677 27.3452 46.4772 27.3908 46.1924C27.4363 45.8962 27.4762 45.6626 27.5104 45.4917C27.5218 45.4347 27.5275 45.3664 27.5275 45.2866C27.5389 45.1955 27.5446 45.1043 27.5446 45.0132C27.556 44.922 27.5617 44.8366 27.5617 44.7568C27.5731 44.6771 27.5901 44.6201 27.6129 44.5859C27.7269 44.3923 27.8123 44.2783 27.8693 44.2441C27.9376 44.21 27.9832 44.1815 28.006 44.1587C28.0402 44.1359 28.0573 44.0789 28.0573 43.9878C28.0687 43.8853 28.0744 43.6802 28.0744 43.3726C28.0744 43.2358 28.1028 43.1333 28.1598 43.0649C28.2168 42.9852 28.2737 42.9168 28.3307 42.8599C28.3991 42.8029 28.4617 42.7516 28.5187 42.7061C28.5757 42.6491 28.6041 42.575 28.6041 42.4839C28.6041 42.3244 28.5586 42.182 28.4674 42.0566C28.3763 41.9199 28.3307 41.7718 28.3307 41.6123C28.3307 41.5212 28.3535 41.4414 28.3991 41.3731C28.4446 41.3047 28.4959 41.242 28.5529 41.1851C28.6212 41.1281 28.6782 41.0711 28.7238 41.0142C28.7693 40.9458 28.7921 40.8661 28.7921 40.7749C28.7921 40.6496 28.7636 40.5243 28.7067 40.3989C28.6611 40.2736 28.6383 40.1483 28.6383 40.023C28.6383 39.9318 28.6668 39.8691 28.7238 39.835C28.7921 39.7894 28.8605 39.7552 28.9288 39.7324C29.0086 39.7096 29.077 39.6926 29.1339 39.6812C29.2023 39.6584 29.2365 39.6299 29.2365 39.5957C29.2023 39.5274 29.1396 39.4932 29.0485 39.4932C28.9118 39.4932 28.8434 39.5672 28.8434 39.7153C28.7636 39.6584 28.6953 39.5957 28.6383 39.5274C28.5814 39.4476 28.5529 39.3621 28.5529 39.271C28.5529 39.1571 28.5814 39.0545 28.6383 38.9634C28.6953 38.8608 28.7579 38.7469 28.8263 38.6216C28.9061 38.4963 28.9744 38.3538 29.0314 38.1943C29.0884 38.0348 29.1168 37.8412 29.1168 37.6133C29.1168 37.374 29.0827 37.1462 29.0143 36.9297C28.9459 36.7018 28.9118 36.474 28.9118 36.2461C28.9118 36.1322 28.9345 36.0182 28.9801 35.9043C29.0371 35.7904 29.0997 35.6821 29.1681 35.5796C29.2479 35.4657 29.3219 35.3574 29.3903 35.2549C29.47 35.141 29.527 35.0213 29.5612 34.896C29.6295 34.6795 29.6637 34.4517 29.6637 34.2124C29.6751 33.9732 29.6808 33.7339 29.6808 33.4946C29.6922 33.2554 29.7093 33.0218 29.7321 32.794C29.7663 32.5547 29.8403 32.3325 29.9542 32.1274C30.0568 31.9452 30.1365 31.797 30.1935 31.6831C30.2505 31.5692 30.3017 31.4609 30.3473 31.3584C30.3929 31.2445 30.4328 31.1248 30.4669 30.9995C30.5011 30.8628 30.5353 30.6862 30.5695 30.4697C30.6264 30.1393 30.7119 29.8203 30.8258 29.5127C30.9511 29.2051 31.0366 28.8861 31.0822 28.5557C31.105 28.305 31.1163 28.0942 31.1163 27.9233C31.1277 27.7411 31.1562 27.5816 31.2018 27.4448C31.2588 27.3081 31.3499 27.1885 31.4752 27.0859C31.612 26.9834 31.817 26.8809 32.0905 26.7783C32.3867 26.6758 32.6829 26.6074 32.9791 26.5732C33.2754 26.5277 33.5716 26.5049 33.8678 26.5049C34.2096 26.5049 34.5628 26.522 34.9274 26.5562C34.9616 26.7498 35.0356 26.9264 35.1496 27.0859C35.2635 27.2341 35.3831 27.3822 35.5084 27.5303C35.6452 27.6784 35.7705 27.8322 35.8844 27.9917C36.0097 28.1398 36.0952 28.3107 36.1408 28.5044C36.1977 28.7664 36.2319 29.0171 36.2433 29.2564C36.2661 29.4842 36.3629 29.7121 36.5338 29.9399C36.6136 30.0653 36.6535 30.2134 36.6535 30.3843C36.6535 30.6463 36.6193 30.897 36.5509 31.1362C36.4826 31.3755 36.4484 31.6205 36.4484 31.8711C36.4484 32.0192 36.494 32.2642 36.5851 32.606C36.6762 32.9478 36.7845 33.318 36.9098 33.7168C37.0351 34.1042 37.1548 34.4858 37.2687 34.8618C37.3826 35.2264 37.4681 35.5112 37.525 35.7163C37.6276 36.1493 37.6788 36.5936 37.6788 37.0493C37.6902 37.5051 37.7643 37.9494 37.901 38.3823C38.0377 38.8381 38.1574 39.2938 38.2599 39.7495C38.3624 40.1939 38.4308 40.6553 38.465 41.1338C38.4878 41.5781 38.5447 42.0111 38.6359 42.4326C38.727 42.8428 38.8239 43.2586 38.9264 43.6802C39.0289 44.0903 39.1201 44.5062 39.1998 44.9277C39.291 45.3493 39.3366 45.7879 39.3366 46.2437C39.3366 46.4146 39.3195 46.5912 39.2853 46.7734C39.2625 46.9557 39.1885 47.1152 39.0631 47.252C39.3024 47.5368 39.5701 47.8444 39.8663 48.1748C40.174 48.5052 40.4759 48.7673 40.7721 48.9609C40.886 49.0293 41.0626 49.0806 41.3019 49.1148C41.5412 49.1489 41.7804 49.1945 42.0197 49.2515C42.2703 49.297 42.4868 49.3711 42.6691 49.4736C42.8628 49.5648 42.9596 49.7015 42.9596 49.8838ZM35.799 40.6724C35.799 40.5698 35.7591 40.4388 35.6793 40.2793C35.5996 40.1084 35.5084 39.9204 35.4059 39.7153C35.3148 39.5103 35.2293 39.2881 35.1496 39.0488C35.0698 38.8096 35.0299 38.5589 35.0299 38.2969C35.0299 37.9893 34.9843 37.6873 34.8932 37.3911C34.8021 37.0835 34.7394 36.7759 34.7052 36.4683C34.6824 36.2176 34.6539 35.9442 34.6198 35.648C34.597 35.3403 34.54 35.0555 34.4489 34.7935C34.3577 34.52 34.2153 34.2979 34.0216 34.127C33.8393 33.9447 33.5716 33.8535 33.2184 33.8535C33.1956 33.9447 33.1557 34.013 33.0988 34.0586C33.0418 34.0928 32.9734 34.127 32.8937 34.1611C32.8253 34.1839 32.7513 34.2067 32.6715 34.2295C32.5918 34.2523 32.5291 34.2922 32.4835 34.3491C32.4949 34.3833 32.5006 34.4346 32.5006 34.5029C32.5006 34.708 32.4551 34.9017 32.3639 35.084C32.2842 35.2549 32.2101 35.4315 32.1417 35.6138C32.062 35.8075 32.005 36.0125 31.9708 36.229C31.9481 36.4341 31.9367 36.6392 31.9367 36.8442C31.9367 37.0265 31.9424 37.2031 31.9538 37.374C31.9651 37.5449 31.9708 37.7158 31.9708 37.8867C31.9708 38.1488 31.9481 38.3766 31.9025 38.5703C31.8569 38.7526 31.8056 38.9235 31.7487 39.083C31.6917 39.2425 31.6404 39.3963 31.5949 39.5444C31.5493 39.6812 31.5265 39.8293 31.5265 39.9888C31.5265 40.3306 31.5379 40.6268 31.5607 40.8774C31.5835 41.1281 31.6347 41.3389 31.7145 41.5098C31.7942 41.6693 31.9082 41.7946 32.0563 41.8857C32.2044 41.9655 32.4095 42.0054 32.6715 42.0054C32.8538 42.0054 33.1159 41.9826 33.4577 41.937C33.8108 41.8914 34.1583 41.8174 34.5001 41.7149C34.8533 41.6009 35.1552 41.4585 35.4059 41.2876C35.6679 41.1167 35.799 40.9116 35.799 40.6724Z" fill="#5B4D51"/>
<path d="M28.868 15.1518H30.284C30.5704 15.1518 30.7918 15.0932 30.948 14.976C31.1108 14.8523 31.1922 14.6993 31.1922 14.517C31.1922 14.4324 31.228 14.3901 31.2996 14.3901C31.3777 14.3901 31.4168 14.4324 31.4168 14.517V16.1967C31.4168 16.2814 31.3777 16.3237 31.2996 16.3237C31.228 16.3237 31.1922 16.2814 31.1922 16.1967C31.1922 16.0275 31.1108 15.8777 30.948 15.7475C30.7918 15.6108 30.5704 15.5424 30.284 15.5424H28.868V18.9213H28.2332V13.062C28.2332 12.8666 28.2006 12.7169 28.1355 12.6127C28.077 12.5086 27.9923 12.4435 27.8816 12.4174C27.771 12.3849 27.6993 12.3588 27.6668 12.3393C27.6342 12.3133 27.618 12.2775 27.618 12.2319C27.618 12.1538 27.6961 12.1147 27.8523 12.1147H31.7391L31.7879 13.2182C31.7879 13.2898 31.7488 13.3289 31.6707 13.3354C31.5926 13.3354 31.547 13.2931 31.534 13.2084C31.5014 13.0066 31.4266 12.8406 31.3094 12.7104C31.1987 12.5802 30.9839 12.5151 30.6648 12.5151H29.3367C29.0242 12.5151 28.868 12.642 28.868 12.8959V15.1518ZM33.0379 15.1518C33.0379 14.9565 33.0118 14.8067 32.9598 14.7026C32.9077 14.5919 32.8263 14.5235 32.7156 14.4975C32.6049 14.465 32.5333 14.4389 32.5008 14.4194C32.4682 14.3933 32.452 14.3608 32.452 14.3217C32.452 14.2371 32.5268 14.1948 32.6766 14.1948H33.3504C33.5392 14.1948 33.6336 14.2957 33.6336 14.4975V15.2104C33.7182 14.937 33.868 14.6961 34.0828 14.4877C34.3432 14.2403 34.6818 14.1166 35.0984 14.1166H35.4207V14.7319C34.9845 14.6407 34.5809 14.7189 34.2098 14.9663C33.8973 15.1811 33.7052 15.5229 33.6336 15.9916V18.9213H33.0379V15.1518ZM35.9285 16.5288C35.9285 15.7931 36.1141 15.2006 36.4852 14.7514C36.8562 14.2957 37.3673 14.0678 38.0184 14.0678C38.6694 14.0678 39.1805 14.2957 39.5516 14.7514C39.9227 15.2006 40.1082 15.7931 40.1082 16.5288C40.1082 17.2644 39.9227 17.8601 39.5516 18.3159C39.1805 18.7651 38.6694 18.9897 38.0184 18.9897C37.3673 18.9897 36.8562 18.7651 36.4852 18.3159C36.1141 17.8601 35.9285 17.2644 35.9285 16.5288ZM36.6121 16.5288C36.6121 17.2058 36.7423 17.7202 37.0027 18.0717C37.2697 18.4168 37.6082 18.5893 38.0184 18.5893C38.422 18.5893 38.7573 18.4168 39.0242 18.0717C39.2911 17.7202 39.4246 17.2058 39.4246 16.5288C39.4246 15.8517 39.2911 15.3406 39.0242 14.9956C38.7573 14.644 38.422 14.4682 38.0184 14.4682C37.6082 14.4682 37.2697 14.644 37.0027 14.9956C36.7423 15.3406 36.6121 15.8517 36.6121 16.5288ZM41.9051 18.9213H41.3191V15.1518C41.3191 14.9565 41.2898 14.8067 41.2312 14.7026C41.1792 14.5919 41.0913 14.5203 40.9676 14.4877C40.8764 14.4617 40.8113 14.4389 40.7723 14.4194C40.7332 14.3998 40.7137 14.3673 40.7137 14.3217C40.7137 14.2371 40.7918 14.1948 40.948 14.1948H41.6414C41.8172 14.1948 41.9051 14.2957 41.9051 14.4975V15.435C41.9962 15.0834 42.1883 14.7775 42.4812 14.517C42.7872 14.2501 43.1453 14.1166 43.5555 14.1166C43.92 14.1166 44.2228 14.2534 44.4637 14.5268C44.7111 14.8002 44.8348 15.2853 44.8348 15.9819V18.9213H44.2293V15.9038C44.2293 15.4676 44.1512 15.1485 43.9949 14.9467C43.8452 14.7449 43.6401 14.644 43.3797 14.644C42.9891 14.644 42.644 14.8556 42.3445 15.2788C42.0906 15.6238 41.9441 16.1446 41.9051 16.8413V18.9213ZM47.0711 12.7202V14.1948H48.3797V14.5854H47.0809V17.8471C47.0809 18.101 47.1427 18.2898 47.2664 18.4135C47.3901 18.5307 47.5789 18.5893 47.8328 18.5893C47.963 18.5893 48.0835 18.586 48.1941 18.5795C48.3048 18.573 48.396 18.56 48.4676 18.5405V18.9409C48.3895 18.9669 48.2592 18.9864 48.077 18.9995C47.8947 19.0125 47.7579 19.019 47.6668 19.019C47.3868 19.019 47.1655 18.9929 47.0027 18.9409C46.8465 18.8823 46.7293 18.7944 46.6512 18.6772C46.5665 18.5665 46.5145 18.4233 46.4949 18.2475C46.4754 18.0652 46.4656 17.8536 46.4656 17.6127V14.5854H45.7625V14.1948H46.4656V13.3061L47.0711 12.7202ZM49.8055 16.5776C49.825 17.144 49.9812 17.6095 50.2742 17.9741C50.5672 18.3321 50.9676 18.534 51.4754 18.5795C51.6642 18.5991 51.8595 18.5926 52.0613 18.56C52.2697 18.5275 52.4747 18.4623 52.6766 18.3647C52.7417 18.3321 52.797 18.3256 52.8426 18.3452C52.8881 18.3647 52.9142 18.394 52.9207 18.4331C52.9337 18.4786 52.9272 18.5275 52.9012 18.5795C52.8751 18.6251 52.8361 18.6642 52.784 18.6967C52.6147 18.7944 52.4031 18.8725 52.1492 18.9311C51.9018 18.9832 51.6219 18.9995 51.3094 18.9799C50.7169 18.9409 50.2059 18.6967 49.7762 18.2475C49.3465 17.7983 49.1316 17.1668 49.1316 16.353C49.1316 15.6303 49.3237 15.0704 49.7078 14.6733C50.0919 14.2696 50.59 14.0678 51.202 14.0678C51.7098 14.0678 52.1362 14.2501 52.4812 14.6147C52.8263 14.9793 52.9988 15.5164 52.9988 16.226V16.5776H49.8055ZM49.8055 16.1577H52.3836C52.3836 15.5457 52.2664 15.1127 52.032 14.8588C51.8042 14.5984 51.5242 14.4682 51.1922 14.4682C50.8146 14.4682 50.4923 14.6179 50.2254 14.9174C49.9585 15.2104 49.8185 15.6238 49.8055 16.1577ZM54.8055 18.9213H54.2195V15.1518C54.2195 14.9565 54.1902 14.8067 54.1316 14.7026C54.0796 14.5919 53.9917 14.5203 53.868 14.4877C53.7768 14.4617 53.7117 14.4389 53.6727 14.4194C53.6336 14.3998 53.6141 14.3673 53.6141 14.3217C53.6141 14.2371 53.6922 14.1948 53.8484 14.1948H54.5418C54.7176 14.1948 54.8055 14.2957 54.8055 14.4975V15.435C54.8966 15.0834 55.0887 14.7775 55.3816 14.517C55.6876 14.2501 56.0457 14.1166 56.4559 14.1166C56.8204 14.1166 57.1232 14.2534 57.3641 14.5268C57.6115 14.8002 57.7352 15.2853 57.7352 15.9819V18.9213H57.1297V15.9038C57.1297 15.4676 57.0516 15.1485 56.8953 14.9467C56.7456 14.7449 56.5405 14.644 56.2801 14.644C55.8895 14.644 55.5444 14.8556 55.2449 15.2788C54.991 15.6238 54.8445 16.1446 54.8055 16.8413V18.9213ZM59.4734 16.5776C59.4734 17.2026 59.5939 17.6941 59.8348 18.0522C60.0822 18.4038 60.3947 18.5795 60.7723 18.5795C61.1368 18.5795 61.4363 18.4038 61.6707 18.0522C61.9051 17.7006 62.0223 17.2416 62.0223 16.6752V16.0209C62.0223 15.5652 61.8953 15.2006 61.6414 14.9272C61.3875 14.6538 61.0848 14.517 60.7332 14.517C60.3686 14.517 60.0659 14.6961 59.825 15.0541C59.5906 15.4057 59.4734 15.9135 59.4734 16.5776ZM62.032 18.1791C61.7325 18.7195 61.2964 18.9897 60.7234 18.9897C60.131 18.9897 59.6687 18.7618 59.3367 18.3061C59.0112 17.8504 58.8484 17.2644 58.8484 16.5483C58.8484 15.7801 59.0112 15.1746 59.3367 14.7319C59.6622 14.2892 60.0984 14.0678 60.6453 14.0678C61.2378 14.0678 61.6967 14.2859 62.0223 14.7221L62.032 14.7319V12.8471C62.032 12.6518 62.0027 12.5021 61.9441 12.3979C61.8921 12.2937 61.8139 12.2286 61.7098 12.2026C61.5926 12.1635 61.5177 12.1342 61.4852 12.1147C61.4526 12.0952 61.4363 12.0626 61.4363 12.017C61.4363 11.9389 61.5145 11.8998 61.6707 11.8998H62.3543C62.5366 11.8998 62.6277 12.004 62.6277 12.2123V18.9213H62.032V18.1791Z" fill="#C2B1B3"/>
<path d="M6.54701 63.7529C6.54701 63.5576 6.51446 63.4078 6.44936 63.3037C6.39076 63.1995 6.30613 63.1344 6.19545 63.1084C6.08477 63.0758 6.01316 63.0498 5.98061 63.0302C5.94805 63.0042 5.93178 62.9684 5.93178 62.9228C5.93178 62.8447 6.0099 62.8056 6.16615 62.8056H7.43568C7.67006 62.8056 7.94024 62.8154 8.24623 62.8349C8.55873 62.8544 8.8224 62.8837 9.03725 62.9228C9.61016 63.027 10.0854 63.3427 10.463 63.8701C10.8406 64.3909 11.0294 65.1819 11.0294 66.2431C11.0294 66.9788 10.935 67.5615 10.7462 67.9912C10.5639 68.4143 10.3198 68.7464 10.0138 68.9873C9.72735 69.2216 9.40183 69.3844 9.03725 69.4755C8.67917 69.5667 8.25274 69.6123 7.75795 69.6123H6.54701V63.7529ZM8.00209 69.2021C8.68568 69.2021 9.24884 68.971 9.69154 68.5087C10.1408 68.0465 10.3654 67.2913 10.3654 66.2431C10.3654 65.2666 10.1863 64.5179 9.82826 63.997C9.4767 63.4762 8.91355 63.2158 8.13881 63.2158H7.66029C7.34128 63.2158 7.18178 63.346 7.18178 63.6064V68.8115C7.18178 69.0719 7.34128 69.2021 7.66029 69.2021H8.00209ZM12.5236 67.2685C12.5431 67.8349 12.6994 68.3004 12.9923 68.665C13.2853 69.0231 13.6857 69.2249 14.1935 69.2705C14.3823 69.29 14.5776 69.2835 14.7794 69.2509C14.9878 69.2184 15.1928 69.1533 15.3947 69.0556C15.4598 69.0231 15.5151 69.0166 15.5607 69.0361C15.6063 69.0556 15.6323 69.0849 15.6388 69.124C15.6518 69.1696 15.6453 69.2184 15.6193 69.2705C15.5932 69.316 15.5542 69.3551 15.5021 69.3876C15.3328 69.4853 15.1212 69.5634 14.8673 69.622C14.6199 69.6741 14.34 69.6904 14.0275 69.6709C13.435 69.6318 12.924 69.3876 12.4943 68.9384C12.0646 68.4892 11.8497 67.8577 11.8497 67.0439C11.8497 66.3212 12.0418 65.7613 12.4259 65.3642C12.81 64.9606 13.3081 64.7587 13.9201 64.7587C14.4279 64.7587 14.8543 64.941 15.1994 65.3056C15.5444 65.6702 15.7169 66.2073 15.7169 66.9169V67.2685H12.5236ZM12.5236 66.8486H15.1017C15.1017 66.2366 14.9845 65.8037 14.7501 65.5498C14.5223 65.2893 14.2423 65.1591 13.9103 65.1591C13.5327 65.1591 13.2104 65.3089 12.9435 65.6084C12.6766 65.9013 12.5366 66.3147 12.5236 66.8486ZM18.6466 68.665L19.9943 64.8857H20.297C20.4012 64.8857 20.463 64.9085 20.4826 64.9541C20.5086 64.9996 20.5053 65.055 20.4728 65.1201L18.7931 69.6416H18.422L16.7814 65.5595C16.7228 65.4554 16.6707 65.3642 16.6251 65.2861C16.5796 65.2015 16.5112 65.1461 16.4201 65.1201C16.3354 65.1005 16.2768 65.0843 16.2443 65.0712C16.2117 65.0517 16.1954 65.0224 16.1954 64.9834C16.1954 64.9182 16.2736 64.8857 16.4298 64.8857H17.1622L18.6466 68.665ZM21.7912 67.2685C21.8107 67.8349 21.9669 68.3004 22.2599 68.665C22.5529 69.0231 22.9533 69.2249 23.4611 69.2705C23.6499 69.29 23.8452 69.2835 24.047 69.2509C24.2553 69.2184 24.4604 69.1533 24.6622 69.0556C24.7274 69.0231 24.7827 69.0166 24.8283 69.0361C24.8738 69.0556 24.8999 69.0849 24.9064 69.124C24.9194 69.1696 24.9129 69.2184 24.8869 69.2705C24.8608 69.316 24.8218 69.3551 24.7697 69.3876C24.6004 69.4853 24.3888 69.5634 24.1349 69.622C23.8875 69.6741 23.6076 69.6904 23.2951 69.6709C22.7026 69.6318 22.1915 69.3876 21.7619 68.9384C21.3322 68.4892 21.1173 67.8577 21.1173 67.0439C21.1173 66.3212 21.3094 65.7613 21.6935 65.3642C22.0776 64.9606 22.5757 64.7587 23.1876 64.7587C23.6954 64.7587 24.1219 64.941 24.4669 65.3056C24.812 65.6702 24.9845 66.2073 24.9845 66.9169V67.2685H21.7912ZM21.7912 66.8486H24.3693C24.3693 66.2366 24.2521 65.8037 24.0177 65.5498C23.7899 65.2893 23.5099 65.1591 23.1779 65.1591C22.8003 65.1591 22.478 65.3089 22.2111 65.6084C21.9441 65.9013 21.8042 66.3147 21.7912 66.8486ZM26.8986 69.6123H26.2736V63.538C26.2736 63.3427 26.2475 63.193 26.1954 63.0888C26.1434 62.9847 26.062 62.9196 25.9513 62.8935C25.8406 62.8544 25.769 62.8251 25.7365 62.8056C25.7039 62.7796 25.6876 62.747 25.6876 62.708C25.6876 62.6298 25.7625 62.5908 25.9122 62.5908H26.6251C26.8074 62.5908 26.8986 62.6949 26.8986 62.9033V69.6123ZM28.0607 67.2197C28.0607 66.484 28.2462 65.8916 28.6173 65.4423C28.9884 64.9866 29.4995 64.7587 30.1505 64.7587C30.8016 64.7587 31.3126 64.9866 31.6837 65.4423C32.0548 65.8916 32.2404 66.484 32.2404 67.2197C32.2404 67.9554 32.0548 68.5511 31.6837 69.0068C31.3126 69.456 30.8016 69.6806 30.1505 69.6806C29.4995 69.6806 28.9884 69.456 28.6173 69.0068C28.2462 68.5511 28.0607 67.9554 28.0607 67.2197ZM28.7443 67.2197C28.7443 67.8968 28.8745 68.4111 29.1349 68.7626C29.4018 69.1077 29.7404 69.2802 30.1505 69.2802C30.5542 69.2802 30.8895 69.1077 31.1564 68.7626C31.4233 68.4111 31.5568 67.8968 31.5568 67.2197C31.5568 66.5426 31.4233 66.0315 31.1564 65.6865C30.8895 65.3349 30.5542 65.1591 30.1505 65.1591C29.7404 65.1591 29.4018 65.3349 29.1349 65.6865C28.8745 66.0315 28.7443 66.5426 28.7443 67.2197ZM33.4415 65.8427C33.4415 65.6474 33.4155 65.4977 33.3634 65.3935C33.3113 65.2828 33.2234 65.2112 33.0997 65.1787C32.9956 65.1526 32.9272 65.1298 32.8947 65.1103C32.8621 65.0908 32.8458 65.0582 32.8458 65.0126C32.8458 64.928 32.924 64.8857 33.0802 64.8857H33.7736C33.9494 64.8857 34.0372 64.9899 34.0372 65.1982V65.5302L34.0763 65.4716C34.4083 64.9964 34.8576 64.7587 35.424 64.7587C35.9774 64.7587 36.4135 64.9801 36.7326 65.4228C37.0581 65.8655 37.2208 66.471 37.2208 67.2392C37.2208 67.9554 37.0516 68.5413 36.713 68.997C36.3745 69.4528 35.9155 69.6806 35.3361 69.6806C34.7501 69.6806 34.3172 69.4625 34.0372 69.0263V71.2919H33.4415V65.8427ZM36.5958 67.2685C36.5958 66.65 36.4819 66.152 36.254 65.7744C36.0262 65.3968 35.6909 65.208 35.2482 65.208C34.9422 65.208 34.6655 65.3512 34.4181 65.6376C34.1707 65.9176 34.047 66.2757 34.047 66.7119V67.6787C34.047 68.2386 34.1707 68.6455 34.4181 68.8994C34.672 69.1533 34.9585 69.2802 35.2775 69.2802C35.6486 69.2802 35.9611 69.1012 36.215 68.7431C36.4689 68.385 36.5958 67.8935 36.5958 67.2685ZM38.754 67.2685C38.7736 67.8349 38.9298 68.3004 39.2228 68.665C39.5158 69.0231 39.9162 69.2249 40.424 69.2705C40.6128 69.29 40.8081 69.2835 41.0099 69.2509C41.2182 69.2184 41.4233 69.1533 41.6251 69.0556C41.6902 69.0231 41.7456 69.0166 41.7912 69.0361C41.8367 69.0556 41.8628 69.0849 41.8693 69.124C41.8823 69.1696 41.8758 69.2184 41.8497 69.2705C41.8237 69.316 41.7846 69.3551 41.7326 69.3876C41.5633 69.4853 41.3517 69.5634 41.0978 69.622C40.8504 69.6741 40.5704 69.6904 40.2579 69.6709C39.6655 69.6318 39.1544 69.3876 38.7247 68.9384C38.2951 68.4892 38.0802 67.8577 38.0802 67.0439C38.0802 66.3212 38.2723 65.7613 38.6564 65.3642C39.0405 64.9606 39.5385 64.7587 40.1505 64.7587C40.6583 64.7587 41.0848 64.941 41.4298 65.3056C41.7749 65.6702 41.9474 66.2073 41.9474 66.9169V67.2685H38.754ZM38.754 66.8486H41.3322C41.3322 66.2366 41.215 65.8037 40.9806 65.5498C40.7527 65.2893 40.4728 65.1591 40.1408 65.1591C39.7632 65.1591 39.4409 65.3089 39.174 65.6084C38.907 65.9013 38.7671 66.3147 38.754 66.8486ZM43.2658 65.8427C43.2658 65.6474 43.2397 65.4977 43.1876 65.3935C43.1356 65.2828 43.0542 65.2145 42.9435 65.1884C42.8328 65.1559 42.7612 65.1298 42.7287 65.1103C42.6961 65.0843 42.6798 65.0517 42.6798 65.0126C42.6798 64.928 42.7547 64.8857 42.9044 64.8857H43.5783C43.7671 64.8857 43.8615 64.9866 43.8615 65.1884V65.9013C43.9461 65.6279 44.0958 65.387 44.3107 65.1787C44.5711 64.9313 44.9096 64.8076 45.3263 64.8076H45.6486V65.4228C45.2124 65.3317 44.8087 65.4098 44.4376 65.6572C44.1251 65.872 43.9331 66.2138 43.8615 66.6826V69.6123H43.2658V65.8427Z" fill="#C2B1B3"/>
</svg>
